HIERARCHY
ROOT CC_Base_BoneRoot
{
	OFFSET 0.000000 0.000000 0.000000
	CHANNELS 6 Xposition Yposition Zposition Xrotation Yrotation Zrotation
	JOINT CC_Base_Hip
	{
		OFFSET 0.000000 0.000000 105.214241
		CHANNELS 3 Xrotation Yrotation Zrotation
		JOINT CC_Base_Pelvis
		{
			OFFSET -0.000000 -0.000001 -0.000069
			CHANNELS 3 Xrotation Yrotation Zrotation
			JOINT CC_Base_L_Thigh
			{
				OFFSET 9.679232 0.301105 -2.207489
				CHANNELS 3 Xrotation Yrotation Zrotation
				JOINT CC_Base_L_Calf
				{
					OFFSET -0.939750 -0.172164 -47.658329
					CHANNELS 3 Xrotation Yrotation Zrotation
					JOINT CC_Base_L_Foot
					{
						OFFSET -0.952431 0.632389 -49.810875
						CHANNELS 3 Xrotation Yrotation Zrotation
						JOINT CC_Base_L_ToeBaseShareBone
						{
							OFFSET 1.566516 -13.132577 -2.423887
							CHANNELS 3 Xrotation Yrotation Zrotation
							End Site
							{
								OFFSET 0.820910 -13.277843 1.311294
							}
						}
						JOINT CC_Base_L_ToeBase
						{
							OFFSET 1.556535 -12.970218 -2.440896
							CHANNELS 3 Xrotation Yrotation Zrotation
							JOINT CC_Base_L_PinkyToe1
							{
								OFFSET 3.000326 -0.095164 -0.265234
								CHANNELS 3 Xrotation Yrotation Zrotation
								End Site
								{
									OFFSET 0.071889 -2.740657 -1.237427
								}
							}
							JOINT CC_Base_L_RingToe1
							{
								OFFSET 1.613520 -1.258591 0.234524
								CHANNELS 3 Xrotation Yrotation Zrotation
								End Site
								{
									OFFSET 0.209102 -2.660546 -1.387572
								}
							}
							JOINT CC_Base_L_MidToe1
							{
								OFFSET 0.190605 -2.362959 0.359053
								CHANNELS 3 Xrotation Yrotation Zrotation
								End Site
								{
									OFFSET 0.263171 -2.823983 -1.001724
								}
							}
							JOINT CC_Base_L_IndexToe1
							{
								OFFSET -1.455172 -2.683045 0.570290
								CHANNELS 3 Xrotation Yrotation Zrotation
								End Site
								{
									OFFSET 0.326793 -2.793737 -1.065754
								}
							}
							JOINT CC_Base_L_BigToe1
							{
								OFFSET -3.660310 -2.552900 0.092412
								CHANNELS 3 Xrotation Yrotation Zrotation
								End Site
								{
									OFFSET 0.310800 -2.991206 -0.060640
								}
							}
						}
					}
					JOINT CC_Base_L_CalfTwist01
					{
						OFFSET -0.000006 0.000004 -0.000038
						CHANNELS 3 Xrotation Yrotation Zrotation
						JOINT CC_Base_L_CalfTwist02
						{
							OFFSET -0.475341 0.310379 -24.892138
							CHANNELS 3 Xrotation Yrotation Zrotation
							End Site
							{
								OFFSET -0.633384 0.481544 -24.885893
							}
						}
					}
					JOINT CC_Base_L_KneeShareBone
					{
						OFFSET -0.000010 0.000005 -0.000038
						CHANNELS 3 Xrotation Yrotation Zrotation
						End Site
						{
							OFFSET -0.422251 0.318261 -16.599602
						}
					}
				}
				JOINT CC_Base_L_ThighTwist01
				{
					OFFSET -0.000006 0.000002 -0.000031
					CHANNELS 3 Xrotation Yrotation Zrotation
					JOINT CC_Base_L_ThighTwist02
					{
						OFFSET -0.465212 -0.080397 -23.828621
						CHANNELS 3 Xrotation Yrotation Zrotation
						End Site
						{
							OFFSET -0.577665 -0.248224 -23.825005
						}
					}
				}
			}
			JOINT CC_Base_R_Thigh
			{
				OFFSET -9.679712 0.301104 -2.207550
				CHANNELS 3 Xrotation Yrotation Zrotation
				JOINT CC_Base_R_ThighTwist01
				{
					OFFSET 0.000007 -0.000003 -0.000008
					CHANNELS 3 Xrotation Yrotation Zrotation
					JOINT CC_Base_R_ThighTwist02
					{
						OFFSET 0.464272 -0.089817 -23.829117
						CHANNELS 3 Xrotation Yrotation Zrotation
						End Site
						{
							OFFSET 0.584725 -0.252406 -23.825294
						}
					}
				}
				JOINT CC_Base_R_Calf
				{
					OFFSET 0.937987 -0.190387 -47.658482
					CHANNELS 3 Xrotation Yrotation Zrotation
					JOINT CC_Base_R_Foot
					{
						OFFSET 0.950368 0.643215 -49.811081
						CHANNELS 3 Xrotation Yrotation Zrotation
						JOINT CC_Base_R_ToeBase
						{
							OFFSET -1.559783 -13.132576 -2.424223
							CHANNELS 3 Xrotation Yrotation Zrotation
							JOINT CC_Base_R_PinkyToe1
							{
								OFFSET -2.990087 -0.102175 -0.270662
								CHANNELS 3 Xrotation Yrotation Zrotation
								End Site
								{
									OFFSET -0.079772 -2.736538 -1.234487
								}
							}
							JOINT CC_Base_R_BigToe1
							{
								OFFSET 3.670992 -2.549512 0.084144
								CHANNELS 3 Xrotation Yrotation Zrotation
								End Site
								{
									OFFSET -0.319780 -2.985505 -0.058824
								}
							}
							JOINT CC_Base_R_IndexToe1
							{
								OFFSET 1.462413 -2.674656 0.556736
								CHANNELS 3 Xrotation Yrotation Zrotation
								End Site
								{
									OFFSET -0.334732 -2.788952 -1.062384
								}
							}
							JOINT CC_Base_R_MidToe1
							{
								OFFSET -0.182861 -2.360682 0.344119
								CHANNELS 3 Xrotation Yrotation Zrotation
								End Site
								{
									OFFSET -0.271526 -2.819080 -0.999012
								}
							}
							JOINT CC_Base_R_RingToe1
							{
								OFFSET -1.607688 -1.252522 0.222115
								CHANNELS 3 Xrotation Yrotation Zrotation
								End Site
								{
									OFFSET -0.216478 -2.655741 -1.385331
								}
							}
						}
						JOINT CC_Base_R_ToeBaseShareBone
						{
							OFFSET -1.559776 -13.132500 -2.424137
							CHANNELS 3 Xrotation Yrotation Zrotation
							End Site
							{
								OFFSET -0.869085 -13.350641 1.333500
							}
						}
					}
					JOINT CC_Base_R_KneeShareBone
					{
						OFFSET -0.000003 -0.000001 -0.000011
						CHANNELS 3 Xrotation Yrotation Zrotation
						End Site
						{
							OFFSET 0.423583 0.316123 -16.599697
						}
					}
					JOINT CC_Base_R_CalfTwist01
					{
						OFFSET -0.000003 -0.000001 -0.000011
						CHANNELS 3 Xrotation Yrotation Zrotation
						JOINT CC_Base_R_CalfTwist02
						{
							OFFSET 0.474322 0.315302 -24.892122
							CHANNELS 3 Xrotation Yrotation Zrotation
							End Site
							{
								OFFSET 0.638875 0.494206 -24.885532
							}
						}
					}
				}
			}
		}
		JOINT CC_Base_Waist
		{
			OFFSET 0.000123 -1.391190 7.892227
			CHANNELS 3 Xrotation Yrotation Zrotation
			JOINT CC_Base_Spine01
			{
				OFFSET -0.000665 -2.896428 4.000412
				CHANNELS 3 Xrotation Yrotation Zrotation
				JOINT CC_Base_Spine02
				{
					OFFSET -0.000151 3.172371 14.481407
					CHANNELS 3 Xrotation Yrotation Zrotation
					JOINT CC_Base_NeckTwist01
					{
						OFFSET 0.001830 5.037313 26.915466
						CHANNELS 3 Xrotation Yrotation Zrotation
						JOINT CC_Base_NeckTwist02
						{
							OFFSET -0.000429 -0.994779 3.682953
							CHANNELS 3 Xrotation Yrotation Zrotation
							JOINT CC_Base_Head
							{
								OFFSET -0.000365 -1.056073 3.987289
								CHANNELS 3 Xrotation Yrotation Zrotation
								JOINT CC_Base_FacialBone
								{
									OFFSET -0.000076 -0.000019 -0.000015
									CHANNELS 3 Xrotation Yrotation Zrotation
									JOINT CC_Base_JawRoot
									{
										OFFSET 0.000166 -2.577461 1.589859
										CHANNELS 3 Xrotation Yrotation Zrotation
										JOINT CC_Base_Tongue01
										{
											OFFSET -0.000266 -3.515649 -0.902802
											CHANNELS 3 Xrotation Yrotation Zrotation
											JOINT CC_Base_Tongue02
											{
												OFFSET -0.000103 -1.192833 -0.092529
												CHANNELS 3 Xrotation Yrotation Zrotation
												JOINT CC_Base_Tongue03
												{
													OFFSET -0.000133 -1.588274 -0.455170
													CHANNELS 3 Xrotation Yrotation Zrotation
													End Site
													{
														OFFSET -0.000195 0.578345 -1.547684
													}
												}
											}
										}
										JOINT CC_Base_Teeth02
										{
											OFFSET -0.000445 -3.518791 -0.882431
											CHANNELS 3 Xrotation Yrotation Zrotation
											End Site
											{
												OFFSET -0.000062 0.000900 3.628738
											}
										}
									}
									JOINT CC_Base_R_Eye
									{
										OFFSET -3.320127 -8.218504 8.193512
										CHANNELS 3 Xrotation Yrotation Zrotation
										End Site
										{
											OFFSET 0.002065 8.681551 -0.000092
										}
									}
									JOINT CC_Base_L_Eye
									{
										OFFSET 3.318957 -8.219094 8.193741
										CHANNELS 3 Xrotation Yrotation Zrotation
										End Site
										{
											OFFSET 0.002065 8.681551 0.000015
										}
									}
									JOINT CC_Base_UpperJaw
									{
										OFFSET -0.000138 -6.915838 3.044510
										CHANNELS 3 Xrotation Yrotation Zrotation
										JOINT CC_Base_Teeth01
										{
											OFFSET -0.000113 -0.066461 0.210709
											CHANNELS 3 Xrotation Yrotation Zrotation
											End Site
											{
												OFFSET 0.000006 0.000046 0.220947
											}
										}
									}
								}
							}
						}
					}
					JOINT CC_Base_L_Clavicle
					{
						OFFSET 5.625835 3.736514 20.628326
						CHANNELS 3 Xrotation Yrotation Zrotation
						JOINT CC_Base_L_Upperarm
						{
							OFFSET 12.748119 2.616885 -0.026810
							CHANNELS 3 Xrotation Yrotation Zrotation
							JOINT CC_Base_L_Forearm
							{
								OFFSET 25.207462 0.007299 -0.258804
								CHANNELS 3 Xrotation Yrotation Zrotation
								JOINT CC_Base_L_ForearmTwist01
								{
									OFFSET -0.000061 0.000038 0.000046
									CHANNELS 3 Xrotation Yrotation Zrotation
									JOINT CC_Base_L_ForearmTwist02
									{
										OFFSET 12.849483 -0.003518 0.057983
										CHANNELS 3 Xrotation Yrotation Zrotation
										End Site
										{
											OFFSET 12.845856 -0.146425 -0.274261
										}
									}
								}
								JOINT CC_Base_L_ElbowShareBone
								{
									OFFSET -0.000008 -0.000001 -0.000031
									CHANNELS 3 Xrotation Yrotation Zrotation
									End Site
									{
										OFFSET 8.567738 -0.043919 -0.182861
									}
								}
								JOINT CC_Base_L_Hand
								{
									OFFSET 25.708935 0.000525 0.133942
									CHANNELS 3 Xrotation Yrotation Zrotation
									JOINT CC_Base_L_Mid1
									{
										OFFSET 11.379295 -1.876784 -0.235855
										CHANNELS 3 Xrotation Yrotation Zrotation
										JOINT CC_Base_L_Mid2
										{
											OFFSET 4.206909 -0.123435 0.033875
											CHANNELS 3 Xrotation Yrotation Zrotation
											JOINT CC_Base_L_Mid3
											{
												OFFSET 2.707268 -0.095429 0.031494
												CHANNELS 3 Xrotation Yrotation Zrotation
												End Site
												{
													OFFSET 2.699577 -0.042444 -0.223358
												}
											}
										}
									}
									JOINT CC_Base_L_Index1
									{
										OFFSET 11.270035 -4.733048 0.074539
										CHANNELS 3 Xrotation Yrotation Zrotation
										JOINT CC_Base_L_Index2
										{
											OFFSET 3.081078 -0.105606 0.039658
											CHANNELS 3 Xrotation Yrotation Zrotation
											JOINT CC_Base_L_Index3
											{
												OFFSET 2.603844 -0.079981 0.040771
												CHANNELS 3 Xrotation Yrotation Zrotation
												End Site
												{
													OFFSET 2.590714 -0.033555 -0.274155
												}
											}
										}
									}
									JOINT CC_Base_L_Ring1
									{
										OFFSET 11.200226 0.468256 -1.122910
										CHANNELS 3 Xrotation Yrotation Zrotation
										JOINT CC_Base_L_Ring2
										{
											OFFSET 3.548828 -0.120251 0.012604
											CHANNELS 3 Xrotation Yrotation Zrotation
											JOINT CC_Base_L_Ring3
											{
												OFFSET 2.486275 -0.090200 0.002686
												CHANNELS 3 Xrotation Yrotation Zrotation
												End Site
												{
													OFFSET 2.478577 0.023370 -0.214066
												}
											}
										}
									}
									JOINT CC_Base_L_Pinky1
									{
										OFFSET 10.416008 2.486697 -2.113419
										CHANNELS 3 Xrotation Yrotation Zrotation
										JOINT CC_Base_L_Pinky2
										{
											OFFSET 2.772491 -0.086895 -0.000244
											CHANNELS 3 Xrotation Yrotation Zrotation
											JOINT CC_Base_L_Pinky3
											{
												OFFSET 2.170418 -0.104033 -0.002472
												CHANNELS 3 Xrotation Yrotation Zrotation
												End Site
												{
													OFFSET 2.151093 -0.017404 -0.306686
												}
											}
										}
									}
									JOINT CC_Base_L_Thumb1
									{
										OFFSET 5.097328 -5.012833 -1.319916
										CHANNELS 3 Xrotation Yrotation Zrotation
										JOINT CC_Base_L_Thumb2
										{
											OFFSET 2.023773 -1.980936 0.020203
											CHANNELS 3 Xrotation Yrotation Zrotation
											JOINT CC_Base_L_Thumb3
											{
												OFFSET 3.367142 -1.516251 -0.003632
												CHANNELS 3 Xrotation Yrotation Zrotation
												End Site
												{
													OFFSET 3.222420 -1.803511 0.004181
												}
											}
										}
									}
								}
							}
							JOINT CC_Base_L_UpperarmTwist01
							{
								OFFSET 0.000006 0.000000 -0.000092
								CHANNELS 3 Xrotation Yrotation Zrotation
								JOINT CC_Base_L_UpperarmTwist02
								{
									OFFSET 12.626181 0.017348 -0.086411
									CHANNELS 3 Xrotation Yrotation Zrotation
									End Site
									{
										OFFSET 12.614151 -0.116489 -0.545715
									}
								}
							}
						}
					}
					JOINT CC_Base_R_Clavicle
					{
						OFFSET -5.621921 3.738149 20.628403
						CHANNELS 3 Xrotation Yrotation Zrotation
						JOINT CC_Base_R_Upperarm
						{
							OFFSET -12.747458 2.620382 -0.027130
							CHANNELS 3 Xrotation Yrotation Zrotation
							JOINT CC_Base_R_UpperarmTwist01
							{
								OFFSET 0.000004 -0.000002 0.000061
								CHANNELS 3 Xrotation Yrotation Zrotation
								JOINT CC_Base_R_UpperarmTwist02
								{
									OFFSET -12.626461 0.032800 -0.087509
									CHANNELS 3 Xrotation Yrotation Zrotation
									End Site
									{
										OFFSET -12.614147 -0.143803 -0.546738
									}
								}
							}
							JOINT CC_Base_R_Forearm
							{
								OFFSET -25.207649 0.030312 -0.259460
								CHANNELS 3 Xrotation Yrotation Zrotation
								JOINT CC_Base_R_ForearmTwist01
								{
									OFFSET -0.000069 -0.000037 -0.000259
									CHANNELS 3 Xrotation Yrotation Zrotation
									JOINT CC_Base_R_ForearmTwist02
									{
										OFFSET -12.849583 0.005212 0.057632
										CHANNELS 3 Xrotation Yrotation Zrotation
										End Site
										{
											OFFSET -12.845531 -0.178712 -0.274628
										}
									}
								}
								JOINT CC_Base_R_ElbowShareBone
								{
									OFFSET 0.000011 0.000005 -0.000198
									CHANNELS 3 Xrotation Yrotation Zrotation
									End Site
									{
										OFFSET -8.567799 -0.064058 -0.182922
									}
								}
								JOINT CC_Base_R_Hand
								{
									OFFSET -25.709145 0.019975 0.132889
									CHANNELS 3 Xrotation Yrotation Zrotation
									JOINT CC_Base_R_Mid1
									{
										OFFSET -11.380081 -1.865469 -0.234695
										CHANNELS 3 Xrotation Yrotation Zrotation
										JOINT CC_Base_R_Mid2
										{
											OFFSET -4.207092 -0.119065 0.033829
											CHANNELS 3 Xrotation Yrotation Zrotation
											JOINT CC_Base_R_Mid3
											{
												OFFSET -2.707199 -0.092269 0.031372
												CHANNELS 3 Xrotation Yrotation Zrotation
												End Site
												{
													OFFSET -2.699371 -0.048402 -0.222458
												}
											}
										}
									}
									JOINT CC_Base_R_Ring1
									{
										OFFSET -11.199821 0.477916 -1.123932
										CHANNELS 3 Xrotation Yrotation Zrotation
										JOINT CC_Base_R_Ring2
										{
											OFFSET -3.548981 -0.116987 0.012604
											CHANNELS 3 Xrotation Yrotation Zrotation
											JOINT CC_Base_R_Ring3
											{
												OFFSET -2.486282 -0.087294 0.002426
												CHANNELS 3 Xrotation Yrotation Zrotation
												End Site
												{
													OFFSET -2.478539 0.017891 -0.213837
												}
											}
										}
									}
									JOINT CC_Base_R_Thumb1
									{
										OFFSET -5.101601 -5.060779 -1.317978
										CHANNELS 3 Xrotation Yrotation Zrotation
										JOINT CC_Base_R_Thumb2
										{
											OFFSET -2.022972 -1.980966 0.019958
											CHANNELS 3 Xrotation Yrotation Zrotation
											JOINT CC_Base_R_Thumb3
											{
												OFFSET -3.366974 -1.734020 -0.002975
												CHANNELS 3 Xrotation Yrotation Zrotation
												End Site
												{
													OFFSET -3.295723 -1.865891 0.004898
												}
											}
										}
									}
									JOINT CC_Base_R_Index1
									{
										OFFSET -11.272018 -4.721709 0.078278
										CHANNELS 3 Xrotation Yrotation Zrotation
										JOINT CC_Base_R_Index2
										{
											OFFSET -3.081085 -0.102337 0.039734
											CHANNELS 3 Xrotation Yrotation Zrotation
											JOINT CC_Base_R_Index3
											{
												OFFSET -2.603897 -0.076826 0.040741
												CHANNELS 3 Xrotation Yrotation Zrotation
												End Site
												{
													OFFSET -2.590599 -0.039103 -0.274048
												}
											}
										}
									}
									JOINT CC_Base_R_Pinky1
									{
										OFFSET -10.414719 2.497349 -2.116714
										CHANNELS 3 Xrotation Yrotation Zrotation
										JOINT CC_Base_R_Pinky2
										{
											OFFSET -2.772430 -0.083082 -0.000153
											CHANNELS 3 Xrotation Yrotation Zrotation
											JOINT CC_Base_R_Pinky3
											{
												OFFSET -2.170349 -0.100748 -0.002747
												CHANNELS 3 Xrotation Yrotation Zrotation
												End Site
												{
													OFFSET -2.150795 -0.021683 -0.306870
												}
											}
										}
									}
								}
							}
						}
					}
					JOINT CC_Base_R_RibsTwist
					{
						OFFSET -10.856568 -8.884927 8.713364
						CHANNELS 3 Xrotation Yrotation Zrotation
						JOINT CC_Base_R_Breast
						{
							OFFSET 0.000867 -3.000035 -0.000153
							CHANNELS 3 Xrotation Yrotation Zrotation
							End Site
							{
								OFFSET -0.000044 -3.000034 -0.000320
							}
						}
					}
					JOINT CC_Base_L_RibsTwist
					{
						OFFSET 10.835660 -8.887159 8.684448
						CHANNELS 3 Xrotation Yrotation Zrotation
						JOINT CC_Base_L_Breast
						{
							OFFSET -0.001493 -3.000003 -0.000214
							CHANNELS 3 Xrotation Yrotation Zrotation
							End Site
							{
								OFFSET -0.000053 -3.000003 -0.000320
							}
						}
					}
				}
			}
		}
	}
}
MOTION
Frames: 2
Frame Time: 0.016667
0.000000 0.000000 0.000000 -0.000000 0.000000 0.564059 32.163791 -0.028253 0.000143 -0.000012 0.000000 -0.000000 -73.910119 0.114544 8.452976 18.080779 -0.075118 -0.098672 0.230640 -2.678792 -7.892707 -0.000004 0.000000 -0.000000 1.611705 -1.694860 4.097343 0.000004 0.000000 -0.000001 0.000013 -0.000004 -0.000001 0.000004 -0.000000 -0.000002 0.000014 0.000001 -0.000002 0.000002 -0.000000 -0.000001 -0.008913 0.006829 -0.351743 -0.051062 0.040265 -2.033779 -9.040815 0.276470 -0.095860 -0.087721 -0.034396 -3.557300 0.085039 0.039714 3.557252 17.496219 -1.465716 -5.606034 -0.075065 0.030078 3.025513 0.073380 -0.033998 -3.025469 47.067937 0.446706 0.716740 33.159462 -4.205498 5.921662 -1.536435 0.173415 0.002236 0.000033 0.000000 0.000002 0.000021 0.000001 0.000002 0.000030 -0.000002 0.000004 0.000017 0.000000 0.000004 0.000035 -0.000003 0.000002 -0.000003 -0.000001 -0.000003 -23.533050 -0.595958 -0.364250 -0.010076 -0.007772 0.396317 0.001688 0.001303 -0.065744 -0.001615 -0.271982 -0.477627 13.857782 0.592560 4.177886 16.721461 3.245016 15.318366 -7.086364 0.163103 -1.118758 -7.086391 0.163105 -1.118766 -26.771022 6.503450 -15.460405 0.000015 0.000014 -0.000029 0.000037 -0.001164 0.001165 -0.000021 0.000011 -0.000018 0.000016 -0.000003 0.000003 -0.000012 -0.000000 0.000000 -0.000005 0.000011 -0.000019 -0.011330 -0.002286 0.011349 -0.011325 -0.002286 0.011344 0.000008 -0.001157 0.001155 0.000016 -0.000001 -0.000012 -2.199443 6.113351 19.565543 60.210044 20.842563 -9.647191 -0.001960 -0.087847 -67.361381 -0.611409 0.006899 0.013065 1.994166 -0.023463 -0.042169 -0.237206 -0.941791 40.418556 1.447014 6.648169 -13.975883 -51.858792 87.528184 49.173237 -23.663346 85.314021 25.623506 28.748294 94.519108 -26.641575 -0.828854 74.102041 1.089418 -1.717285 93.864052 2.321556 2.574309 86.808323 -2.006290 81.860883 105.235627 -81.234814 -6.591022 81.844989 5.623885 8.939554 95.960736 -10.034219 44.834584 125.178298 -42.991820 7.182585 96.590534 -7.954104 35.451421 91.418626 -36.183002 21.774971 29.107039 -1.954086 4.549865 14.901468 39.424098 0.595827 11.962890 46.734227 -29.029414 -0.054579 1.269355 29.024397 -0.568100 -1.136365 3.160789 5.908218 -7.714958 -54.867794 -49.528161 12.132176 29.724184 0.650840 1.145613 -29.730669 0.002970 -1.317504 -0.014290 0.102094 80.783475 -0.758629 -0.010464 -0.016283 -3.899650 -0.051365 -0.085149 -0.146508 1.374335 -48.469068 -10.707692 -10.059481 22.113453 -52.730864 -87.561345 -50.048840 -23.861271 -85.360303 -25.828565 28.814044 -94.495934 26.700762 81.684910 -105.241816 81.047175 -6.585150 -81.886059 -5.623439 8.808825 -96.011887 9.897070 21.785474 -29.118210 1.960308 4.552089 -14.908187 -39.439309 0.593554 -11.972380 -46.773699 -0.827453 -74.148288 -1.091612 -1.772373 -93.922218 -2.383975 2.728304 -86.859550 2.153148 44.828260 -125.174459 42.978566 7.133905 -96.590848 7.898899 35.262382 -91.415470 35.992624 0.000011 0.000005 -0.000002 -0.000003 -0.000001 0.000002 0.000009 0.000007 -0.000002 0.000002 -0.000001 -0.000000 
-0.130764 -5.431335 0.000000 -0.000000 0.000000 3.977982 29.732527 -1.184610 0.000018 0.000017 -0.000000 -0.000000 -73.854289 2.174143 9.939785 24.229995 -0.073879 -0.293365 -2.896958 -4.660282 -7.775809 -0.000009 -0.000000 -0.000002 -0.180217 -1.760145 2.534577 -0.000026 0.000000 0.000000 -0.000001 -0.000003 0.000001 -0.000002 -0.000000 -0.000003 0.000002 -0.000005 0.000002 -0.000006 -0.000001 -0.000001 -0.007613 0.005830 -0.300393 -0.071074 0.056876 -2.847281 -12.114418 0.331559 0.042152 -0.106668 -0.041014 -4.314751 0.102825 0.048849 4.314679 10.189610 -2.397895 -9.020942 -0.115995 0.044579 4.649936 0.112015 -0.053837 -4.649837 65.945299 0.804547 0.895526 20.304269 -2.371751 5.668342 3.009296 -1.590435 -0.984771 -0.000013 -0.000001 0.000001 0.000005 0.000001 0.000000 -0.000016 -0.000001 -0.000002 -0.000004 -0.000001 0.000000 -0.000022 -0.000003 -0.000001 -0.000017 -0.000001 -0.000002 -32.974678 -0.717656 -0.591561 -0.013162 -0.010180 0.518189 -0.005761 -0.004470 0.224565 -0.003078 -0.364870 -0.569236 14.774638 -0.758543 3.869558 17.426903 1.939425 15.183483 -6.828620 0.296652 -1.796897 -6.828665 0.296652 -1.796905 -26.151165 7.556194 -15.020798 -0.000005 0.000007 -0.000022 0.000004 -0.001152 0.001152 0.000020 0.000003 -0.000000 0.000012 -0.000008 0.000005 0.000005 -0.000001 0.000000 0.000028 0.000011 -0.000003 -0.011332 -0.002286 0.011349 -0.011325 -0.002286 0.011344 0.000004 -0.001147 0.001149 0.000016 -0.000001 0.000000 -2.164594 6.055819 19.317542 60.553247 21.245607 -12.215851 -0.003082 -0.089622 -68.837720 -0.618627 0.006985 0.013210 2.196648 -0.025927 -0.046411 -0.227946 -0.971673 41.304189 1.615180 4.580964 -14.321290 -51.827906 87.527208 49.142501 -23.653906 85.312437 25.614128 28.802952 94.510550 -26.696419 -0.827888 74.100934 1.088609 -1.718785 93.861614 2.322972 2.573827 86.806486 -2.005735 81.866764 105.235306 -81.240920 -6.589841 81.843725 5.622720 8.941684 95.958960 -10.036325 45.361506 124.849561 -43.423734 7.373980 96.420367 -8.144414 87.276820 90.822829 -88.002295 21.775287 29.107589 -1.954267 4.549898 14.901658 39.424453 0.595891 11.962555 46.732902 -28.970760 -0.053829 1.266871 28.965753 -0.566397 -1.134411 3.336121 5.848381 -8.284708 -49.592313 -48.071220 14.337962 27.492584 0.582167 1.072861 -27.498278 -0.021028 -1.220384 -0.013583 0.101507 80.059154 -0.755358 -0.010416 -0.016215 -3.998000 -0.052593 -0.087339 -0.154308 1.358004 -48.034480 -11.043870 -8.763134 21.063311 -52.721872 -87.561195 -50.040083 -23.859785 -85.360043 -25.827056 28.816175 -94.495510 26.702874 81.686132 -105.241542 81.048240 -6.584760 -81.885533 -5.623014 8.810209 -96.011539 9.898554 21.788628 -29.123640 1.962674 4.552427 -14.911893 -39.447057 0.593657 -11.972443 -46.773381 -0.827856 -74.148096 -1.091802 -1.771944 -93.921918 -2.383575 2.727344 -86.858894 2.152182 45.355714 -124.845476 43.411091 7.323412 -96.421309 8.087343 87.266574 -90.816996 87.988143 0.000014 0.000003 0.000003 -0.000000 0.000000 0.000009 0.000009 0.000008 0.000008 -0.000002 -0.000001 -0.000002 
